<?xml version="1.0" encoding="utf-8"?>
<svg viewBox="585.2652 33.7357 204.379 216.5605" xmlns="http://www.w3.org/2000/svg">
  <path d="M 588.806 159.793 C 587.24 159.796 585.895 158.682 585.606 157.143 L 585.606 156.973 C 585.6 156.867 585.6 156.76 585.606 156.653 C 579.351 78.198 660.371 22.391 731.443 56.202 C 757.492 68.594 777.094 91.413 785.416 119.033 C 785.695 119.803 785.674 120.649 785.356 121.403 C 784.445 123.524 781.677 124.046 780.056 122.403 C 766.243 111.073 745.539 115.029 736.876 130.653 C 735.923 132.522 733.475 133.012 731.876 131.653 C 718.082 120.143 697.217 124.046 688.516 139.763 C 687.563 141.632 685.115 142.122 683.516 140.763 C 669.725 129.252 648.861 133.149 640.156 148.863 C 639.203 150.732 636.755 151.222 635.156 149.863 C 621.344 138.336 600.447 142.266 591.766 158.023 C 591.2 159.131 590.05 159.819 588.806 159.793 Z M 687.466 52.263 C 634.898 52.245 592.139 94.598 591.656 147.163 C 596.703 142.069 603.192 138.649 610.246 137.363 C 619.271 135.594 628.63 137.498 636.246 142.653 C 647.246 127.003 668.713 122.967 684.646 133.553 C 695.646 117.903 717.113 113.867 733.046 124.453 C 738.28 116.858 746.335 111.673 755.416 110.053 C 762.445 108.692 769.722 109.519 776.266 112.423 C 761.716 76.119 726.557 52.306 687.446 52.263 L 687.466 52.263 Z" class="cls-1" style="fill: rgb(255, 255, 255);" transform="matrix(1, 0, 0, 1, 0, 3.552713678800501e-15)"/>
  <path d="M 711.646 222.703 C 703.818 222.696 697.101 217.125 695.646 209.433 L 695.516 208.743 L 682.416 138.933 C 681.954 136.474 684.328 134.437 686.689 135.266 C 687.785 135.651 688.592 136.592 688.806 137.733 L 702.066 208.223 C 703.178 215.669 711.934 219.119 717.826 214.433 C 720.767 212.094 722.108 208.277 721.276 204.613 C 720.814 202.154 723.188 200.117 725.549 200.946 C 726.645 201.331 727.452 202.272 727.666 203.413 C 729.544 213.432 721.859 222.692 711.666 222.693 L 711.646 222.703 Z M 637.196 150.453 C 635.786 150.453 634.567 149.471 634.266 148.093 C 631.942 135.641 631.457 122.916 632.826 110.323 C 635.826 82.813 647.766 61.323 667.436 48.233 C 669.36 46.952 671.951 48.234 672.099 50.541 C 672.167 51.612 671.659 52.638 670.766 53.233 C 626.766 82.533 639.986 146.233 640.126 146.823 C 640.535 148.697 639.104 150.469 637.186 150.463 L 637.196 150.453 Z" class="cls-1" style="fill: rgb(255, 255, 255);" transform="matrix(1, 0, 0, 1, 0, 3.552713678800501e-15)"/>
  <path d="M 733.966 132.503 C 732.368 132.503 731.007 131.342 730.756 129.763 C 730.656 129.123 719.836 65.183 668.406 53.903 C 665.962 53.368 665.013 50.388 666.699 48.539 C 667.481 47.681 668.662 47.305 669.796 47.553 C 692.956 52.633 711.966 68.343 724.796 92.963 C 730.659 104.219 734.84 116.274 737.206 128.743 C 737.488 130.516 736.279 132.182 734.506 132.463 C 734.327 132.491 734.147 132.505 733.966 132.503 Z" class="cls-1" style="fill: rgb(255, 255, 255);" transform="matrix(1, 0, 0, 1, 0, 3.552713678800501e-15)"/>
  <path d="M 668.876 54.023 C 667.317 54.022 665.979 52.914 665.686 51.383 L 663.036 37.483 C 662.657 35.01 665.097 33.054 667.428 33.962 C 668.431 34.353 669.175 35.214 669.416 36.263 L 672.066 50.163 C 672.449 52.17 670.909 54.028 668.866 54.023 L 668.876 54.023 Z" class="cls-1" style="fill: rgb(255, 255, 255);" transform="matrix(1, 0, 0, 1, 0, 3.552713678800501e-15)"/>
  <path d="M 789.636 150.553 C 789.647 150.4 789.647 150.246 789.636 150.093 C 789.636 147.763 789.636 145.423 789.556 143.093 C 789.497 140.592 786.752 139.093 784.616 140.395 C 783.573 141.03 782.975 142.196 783.066 143.413 C 783.126 144.713 783.156 146.013 783.166 147.313 L 742.416 147.313 C 727.112 147.313 717.548 163.88 725.199 177.133 C 728.751 183.284 735.314 187.073 742.416 187.073 L 751.336 187.073 C 753.847 187.079 755.88 189.113 755.886 191.623 L 755.886 198.093 C 755.884 198.291 755.901 198.489 755.936 198.683 C 756.053 202.855 757.492 206.882 760.046 210.183 C 736.807 237.538 700.148 249.481 665.256 241.063 C 676.872 231.459 673.735 212.881 659.609 207.623 C 657.423 206.809 655.109 206.393 652.776 206.393 L 633.776 206.393 C 632.616 206.257 631.665 205.41 631.396 204.273 L 631.396 196.163 C 631.417 183.3 617.505 175.238 606.354 181.652 C 603.834 183.102 601.735 185.184 600.266 187.693 C 598.885 184.679 597.663 181.595 596.606 178.453 C 595.813 176.078 592.747 175.452 591.086 177.327 C 590.316 178.196 590.068 179.411 590.436 180.513 C 600.587 210.766 624.28 234.544 654.496 244.803 C 654.655 244.87 654.819 244.923 654.986 244.963 C 719.908 266.64 787.374 219.625 789.516 151.213 C 789.579 150.998 789.619 150.777 789.636 150.553 Z M 604.486 195.813 C 604.617 187.946 613.215 183.17 619.963 187.217 C 623.095 189.096 624.987 192.502 624.926 196.153 L 624.926 204.563 C 624.913 204.733 624.913 204.903 624.926 205.073 C 625.59 209.312 629.078 212.54 633.356 212.873 L 652.726 212.873 C 662.795 212.871 669.09 223.77 664.057 232.491 C 662.775 234.712 660.869 236.507 658.576 237.653 C 657.817 237.991 657.022 238.243 656.206 238.403 C 634.421 230.859 616.068 215.746 604.486 195.813 Z M 764.266 204.813 C 763.053 202.763 762.414 200.425 762.416 198.043 C 762.431 197.864 762.431 197.683 762.416 197.503 L 762.416 191.573 C 762.405 185.475 757.464 180.534 751.366 180.523 L 742.416 180.523 C 732.116 180.523 725.679 169.373 730.829 160.453 C 733.219 156.313 737.636 153.763 742.416 153.763 L 782.946 153.763 C 781.809 172.243 775.322 189.994 764.276 204.853 L 764.266 204.813 Z" class="cls-2" style="fill: rgb(255, 255, 255);" transform="matrix(1, 0, 0, 1, 0, 3.552713678800501e-15)"/>
  <path d="M 652.106 192.763 C 663.022 192.763 669.844 180.947 664.386 171.493 C 658.928 162.04 645.284 162.04 639.826 171.493 C 638.581 173.649 637.926 176.094 637.926 178.583 C 637.937 186.41 644.279 192.752 652.106 192.763 Z M 652.106 170.893 C 658.018 170.893 661.713 177.293 658.757 182.413 C 655.801 187.533 648.411 187.533 645.455 182.413 C 644.781 181.246 644.426 179.921 644.426 178.573 C 644.453 174.35 647.882 170.939 652.106 170.933 L 652.106 170.893 Z" class="cls-2" style="fill: rgb(255, 255, 255);" transform="matrix(1, 0, 0, 1, 0, 3.552713678800501e-15)"/>
</svg>