<?xml version="1.0" encoding="utf-8"?>
<svg viewBox="615.369 74.3937 218.81 320.8073" width="218.81" height="320.807" xmlns="http://www.w3.org/2000/svg">
  <path d="M 701.349 336.361 L 695.289 336.361 C 695.134 336.361 695.009 336.487 695.009 336.641 L 695.009 339.641 C 695.009 339.796 695.134 339.921 695.289 339.921 L 697.659 339.921 L 697.659 343.591 C 697.004 343.745 696.331 343.805 695.659 343.771 C 693.929 343.771 691.509 343.141 691.509 337.821 C 691.509 332.501 694.029 331.821 696.389 331.821 C 697.575 331.78 698.759 331.96 699.879 332.351 C 700.054 332.382 700.216 332.249 700.219 332.071 L 700.899 329.211 C 700.902 329.124 700.86 329.041 700.789 328.991 C 700.559 328.831 699.169 328.051 695.659 328.051 C 691.659 328.051 687.469 329.771 687.469 338.051 C 687.469 346.331 692.219 347.551 696.219 347.551 C 698.091 347.593 699.937 347.101 701.539 346.131 C 701.603 346.081 701.636 346.002 701.629 345.921 L 701.629 336.681 C 701.654 336.511 701.521 336.359 701.349 336.361 Z M 732.579 329.011 C 732.579 328.857 732.454 328.731 732.299 328.731 L 728.889 328.731 C 728.734 328.731 728.609 328.857 728.609 329.011 L 728.609 335.591 L 723.289 335.591 L 723.289 329.001 C 723.289 328.847 723.164 328.721 723.009 328.721 L 719.599 328.721 C 719.444 328.721 719.319 328.847 719.319 329.001 L 719.319 346.851 C 719.313 347.01 719.44 347.141 719.599 347.141 L 723.009 347.141 C 723.168 347.141 723.295 347.01 723.289 346.851 L 723.289 339.211 L 728.609 339.211 L 728.609 346.851 C 728.603 347.01 728.73 347.141 728.889 347.141 L 732.309 347.141 C 732.468 347.141 732.595 347.01 732.589 346.851 L 732.579 329.011 Z" class="cls-1" style="fill: rgb(255, 255, 255);"/>
  <ellipse cx="705.589" cy="331.351" class="cls-1" rx="2.2" ry="2.22" style="fill: rgb(255, 255, 255);"/>
  <path d="M 707.549 343.091 L 707.549 334.851 C 707.549 334.697 707.424 334.571 707.269 334.571 L 703.869 334.571 C 703.702 334.586 703.573 334.724 703.569 334.891 L 703.569 346.691 C 703.569 347.041 703.789 347.141 704.069 347.141 L 707.129 347.141 C 707.469 347.141 707.549 346.971 707.549 346.681 L 707.549 343.091 Z M 745.539 334.591 L 742.159 334.591 C 742 334.591 741.873 334.723 741.879 334.881 L 741.879 343.591 C 741.261 343.998 740.539 344.217 739.799 344.221 C 738.579 344.221 738.259 343.671 738.259 342.471 L 738.259 334.841 C 738.265 334.683 738.138 334.551 737.979 334.551 L 734.539 334.551 C 734.38 334.551 734.253 334.683 734.259 334.841 L 734.259 343.051 C 734.259 346.601 736.259 347.471 738.959 347.471 C 740.378 347.427 741.76 347.002 742.959 346.241 C 742.986 346.486 743.026 346.73 743.079 346.971 C 743.131 347.061 743.225 347.118 743.329 347.121 L 745.519 347.121 C 745.678 347.121 745.805 346.99 745.799 346.831 L 745.799 334.831 C 745.78 334.7 745.672 334.599 745.539 334.591 Z M 754.789 334.201 C 753.655 334.195 752.54 334.492 751.559 335.061 L 751.559 329.061 C 751.559 328.907 751.434 328.781 751.279 328.781 L 747.859 328.781 C 747.704 328.781 747.579 328.907 747.579 329.061 L 747.579 346.911 C 747.573 347.07 747.7 347.201 747.859 347.201 L 750.229 347.201 C 750.334 347.202 750.43 347.144 750.479 347.051 C 750.546 346.782 750.593 346.508 750.619 346.231 C 751.753 347.134 753.17 347.606 754.619 347.561 C 757.729 347.561 759.509 345.981 759.509 340.481 C 759.509 334.981 756.719 334.201 754.789 334.201 Z M 753.449 344.261 C 752.744 344.248 752.055 344.052 751.449 343.691 L 751.449 338.041 C 751.987 337.733 752.583 337.539 753.199 337.471 C 754.419 337.361 755.589 337.731 755.589 340.641 C 755.659 343.701 755.099 344.301 753.459 344.251 L 753.449 344.261 Z M 717.349 334.591 L 714.789 334.591 L 714.789 331.191 C 714.789 331.061 714.719 331.001 714.579 331.001 L 711.089 331.001 C 710.949 331.001 710.879 331.061 710.879 331.191 L 710.879 334.681 L 709.009 335.141 C 708.89 335.177 708.808 335.287 708.809 335.411 L 708.809 337.591 C 708.803 337.75 708.93 337.881 709.089 337.881 L 710.879 337.881 L 710.879 343.161 C 710.879 347.081 713.629 347.471 715.489 347.471 C 716.167 347.449 716.84 347.338 717.489 347.141 C 717.593 347.098 717.658 346.993 717.649 346.881 L 717.649 344.471 C 717.644 344.319 717.521 344.196 717.369 344.191 C 717.219 344.191 716.839 344.251 716.449 344.251 C 715.189 344.251 714.769 343.671 714.769 342.911 L 714.769 337.911 L 717.329 337.911 C 717.52 337.949 717.69 337.784 717.659 337.591 L 717.659 334.841 C 717.643 334.686 717.504 334.574 717.349 334.591 Z M 635.989 380.961 L 622.819 380.961 L 622.819 395.201 L 615.369 395.201 L 615.369 360.301 L 637.369 360.301 L 637.369 367.091 L 622.819 367.091 L 622.819 374.301 L 635.989 374.301 L 635.989 380.961 Z M 643.159 395.201 L 643.159 360.301 L 650.609 360.301 L 650.609 395.201 L 643.159 395.201 Z M 678.659 380.501 L 665.169 380.501 L 665.169 388.411 L 679.969 388.411 L 679.969 395.201 L 657.719 395.201 L 657.719 360.301 L 679.969 360.301 L 679.969 367.091 L 665.169 367.091 L 665.169 373.841 L 678.659 373.841 L 678.659 380.501 Z M 693.559 388.411 L 707.659 388.411 L 707.659 395.201 L 686.119 395.201 L 686.119 360.301 L 693.569 360.301 L 693.559 388.411 Z M 712.659 395.201 L 712.659 360.301 L 723.969 360.301 C 735.789 360.301 738.859 367.841 738.859 377.751 C 738.859 387.661 735.789 395.201 723.969 395.201 L 712.659 395.201 Z M 720.109 388.411 L 724.109 388.411 C 729.549 388.411 731.109 384.501 731.109 377.751 C 731.109 371.001 729.529 367.091 724.109 367.091 L 720.109 367.091 L 720.109 388.411 Z M 751.039 395.201 L 751.039 360.301 L 762.349 360.301 C 774.169 360.301 777.239 367.841 777.239 377.751 C 777.239 387.661 774.169 395.201 762.349 395.201 L 751.039 395.201 Z M 758.489 388.411 L 762.489 388.411 C 767.929 388.411 769.489 384.501 769.489 377.751 C 769.489 371.001 767.909 367.091 762.489 367.091 L 758.489 367.091 L 758.489 388.411 Z M 779.389 395.201 L 789.069 360.111 L 797.659 360.111 L 807.339 395.201 L 799.429 395.201 L 797.799 388.031 L 788.959 388.031 L 787.329 395.201 L 779.389 395.201 Z M 790.389 382.121 L 796.389 382.121 L 793.389 368.901 L 790.389 382.121 Z M 823.089 381.661 L 823.089 395.201 L 815.549 395.201 L 815.549 381.661 L 804.469 360.301 L 812.989 360.301 L 819.319 374.871 L 825.659 360.301 L 834.179 360.301 L 823.089 381.661 Z M 623.049 200.451 C 621.483 200.454 620.138 199.34 619.849 197.801 L 619.849 197.631 C 619.843 197.525 619.843 197.418 619.849 197.311 C 613.594 118.856 694.614 63.049 765.686 96.86 C 791.735 109.252 811.337 132.071 819.659 159.691 C 819.938 160.461 819.917 161.307 819.599 162.061 C 818.688 164.182 815.92 164.704 814.299 163.061 C 800.486 151.731 779.782 155.687 771.119 171.311 C 770.166 173.18 767.718 173.67 766.119 172.311 C 752.325 160.801 731.46 164.704 722.759 180.421 C 721.806 182.29 719.358 182.78 717.759 181.421 C 703.968 169.91 683.104 173.807 674.399 189.521 C 673.446 191.39 670.998 191.88 669.399 190.521 C 655.587 178.994 634.69 182.924 626.009 198.681 C 625.443 199.789 624.293 200.477 623.049 200.451 Z M 721.709 92.921 C 669.141 92.903 626.382 135.256 625.899 187.821 C 630.946 182.727 637.435 179.307 644.489 178.021 C 653.514 176.252 662.873 178.156 670.489 183.311 C 681.489 167.661 702.956 163.625 718.889 174.211 C 729.889 158.561 751.356 154.525 767.289 165.111 C 772.523 157.516 780.578 152.331 789.659 150.711 C 796.688 149.35 803.965 150.177 810.509 153.081 C 795.959 116.777 760.8 92.964 721.689 92.921 L 721.709 92.921 Z" class="cls-1" style="fill: rgb(255, 255, 255);"/>
  <path d="M 745.889 263.361 C 738.061 263.354 731.344 257.783 729.889 250.091 L 729.759 249.401 L 716.659 179.591 C 716.197 177.132 718.571 175.095 720.932 175.924 C 722.028 176.309 722.835 177.25 723.049 178.391 L 736.309 248.881 C 737.421 256.327 746.177 259.777 752.069 255.091 C 755.01 252.752 756.351 248.935 755.519 245.271 C 755.057 242.812 757.431 240.775 759.792 241.604 C 760.888 241.989 761.695 242.93 761.909 244.071 C 763.787 254.09 756.102 263.35 745.909 263.351 L 745.889 263.361 Z M 671.439 191.111 C 670.029 191.111 668.81 190.129 668.509 188.751 C 666.185 176.299 665.7 163.574 667.069 150.981 C 670.069 123.471 682.009 101.981 701.679 88.891 C 703.603 87.61 706.194 88.892 706.342 91.199 C 706.41 92.27 705.902 93.296 705.009 93.891 C 661.009 123.191 674.229 186.891 674.369 187.481 C 674.778 189.355 673.347 191.127 671.429 191.121 L 671.439 191.111 Z" class="cls-1" style="fill: rgb(255, 255, 255);"/>
  <path d="M 768.209 173.161 C 766.611 173.161 765.25 172 764.999 170.421 C 764.899 169.781 754.079 105.841 702.649 94.561 C 700.205 94.026 699.256 91.046 700.942 89.197 C 701.724 88.339 702.905 87.963 704.039 88.211 C 727.199 93.291 746.209 109.001 759.039 133.621 C 764.902 144.877 769.083 156.932 771.449 169.401 C 771.731 171.174 770.522 172.84 768.749 173.121 C 768.57 173.149 768.39 173.163 768.209 173.161 Z" class="cls-1" style="fill: rgb(255, 255, 255);"/>
  <path d="M 703.119 94.681 C 701.56 94.68 700.222 93.572 699.929 92.041 L 697.279 78.141 C 696.9 75.668 699.34 73.712 701.671 74.62 C 702.674 75.011 703.418 75.872 703.659 76.921 L 706.309 90.821 C 706.692 92.828 705.152 94.686 703.109 94.681 L 703.119 94.681 Z" class="cls-1" style="fill: rgb(255, 255, 255);"/>
  <path d="M 823.879 191.211 C 823.89 191.058 823.89 190.904 823.879 190.751 C 823.879 188.421 823.879 186.081 823.799 183.751 C 823.74 181.25 820.995 179.751 818.859 181.053 C 817.816 181.688 817.218 182.854 817.309 184.071 C 817.369 185.371 817.399 186.671 817.409 187.971 L 776.659 187.971 C 761.355 187.971 751.791 204.538 759.442 217.791 C 762.994 223.942 769.557 227.731 776.659 227.731 L 785.579 227.731 C 788.09 227.737 790.123 229.771 790.129 232.281 L 790.129 238.751 C 790.127 238.949 790.144 239.147 790.179 239.341 C 790.296 243.513 791.735 247.54 794.289 250.841 C 771.05 278.196 734.391 290.139 699.499 281.721 C 711.115 272.117 707.978 253.539 693.852 248.281 C 691.666 247.467 689.352 247.051 687.019 247.051 L 668.019 247.051 C 666.859 246.915 665.908 246.068 665.639 244.931 L 665.639 236.821 C 665.66 223.958 651.748 215.896 640.597 222.31 C 638.077 223.76 635.978 225.842 634.509 228.351 C 633.128 225.337 631.906 222.253 630.849 219.111 C 630.056 216.736 626.99 216.11 625.329 217.985 C 624.559 218.854 624.311 220.069 624.679 221.171 C 634.83 251.424 658.523 275.202 688.739 285.461 C 688.898 285.528 689.062 285.581 689.229 285.621 C 754.151 307.298 821.617 260.283 823.759 191.871 C 823.822 191.656 823.862 191.435 823.879 191.211 Z M 638.729 236.471 C 638.86 228.604 647.458 223.828 654.206 227.875 C 657.338 229.754 659.23 233.16 659.169 236.811 L 659.169 245.221 C 659.156 245.391 659.156 245.561 659.169 245.731 C 659.833 249.97 663.321 253.198 667.599 253.531 L 686.969 253.531 C 697.038 253.529 703.333 264.428 698.3 273.149 C 697.018 275.37 695.112 277.165 692.819 278.311 C 692.06 278.649 691.265 278.901 690.449 279.061 C 668.664 271.517 650.311 256.404 638.729 236.471 Z M 798.509 245.471 C 797.296 243.421 796.657 241.083 796.659 238.701 C 796.674 238.522 796.674 238.341 796.659 238.161 L 796.659 232.231 C 796.648 226.133 791.707 221.192 785.609 221.181 L 776.659 221.181 C 766.359 221.181 759.922 210.031 765.072 201.111 C 767.462 196.971 771.879 194.421 776.659 194.421 L 817.189 194.421 C 816.052 212.901 809.565 230.652 798.519 245.511 L 798.509 245.471 Z" class="cls-2" style="fill: rgb(255, 255, 255);"/>
  <path d="M 686.349 233.421 C 697.265 233.421 704.087 221.605 698.629 212.151 C 693.171 202.698 679.527 202.698 674.069 212.151 C 672.824 214.307 672.169 216.752 672.169 219.241 C 672.18 227.068 678.522 233.41 686.349 233.421 Z M 686.349 211.551 C 692.261 211.551 695.956 217.951 693 223.071 C 690.044 228.191 682.654 228.191 679.698 223.071 C 679.024 221.904 678.669 220.579 678.669 219.231 C 678.696 215.008 682.125 211.597 686.349 211.591 L 686.349 211.551 Z" class="cls-2" style="fill: rgb(255, 255, 255);"/>
</svg>
